<svg aria-hidden="true" style="position: absolute; width: 0; height: 0; overflow: hidden;" version="1.1" xmlns="http://www.w3.org/2000/svg" xmlns:xlink="http://www.w3.org/1999/xlink">
<defs>
<symbol id="icon-vector-one" viewBox="0 0 74 32">
<path fill="#fff" style="fill: var(--color1, #fff)" d="M57.943 32l15.657-16-15.657-16-4.704 4.807 7.627 7.794h-60.866v6.798h60.866l-7.627 7.794 4.704 4.807z"></path>
</symbol>
<symbol id="icon-star" viewBox="0 0 34 32">
<path fill="#ffb801" style="fill: var(--color2, #ffb801)" d="M33.494 12.16c-0.056-0.175-0.161-0.33-0.301-0.448s-0.311-0.195-0.492-0.221l-10.398-1.511-4.651-9.431c-0.081-0.164-0.207-0.303-0.363-0.399s-0.335-0.148-0.519-0.148-0.363 0.051-0.519 0.148c-0.156 0.097-0.281 0.235-0.363 0.399l-4.651 9.424-10.398 1.511c-0.181 0.027-0.351 0.103-0.491 0.222s-0.244 0.273-0.301 0.447c-0.057 0.174-0.064 0.361-0.020 0.539s0.136 0.34 0.267 0.468l7.523 7.334-1.775 10.357c-0.030 0.18-0.009 0.364 0.060 0.533s0.184 0.315 0.331 0.422 0.322 0.172 0.503 0.186c0.182 0.014 0.364-0.023 0.526-0.106l9.308-4.884 9.3 4.889c0.162 0.084 0.344 0.12 0.526 0.106s0.356-0.079 0.504-0.186c0.147-0.108 0.262-0.254 0.331-0.423s0.089-0.354 0.059-0.534l-1.775-10.357 7.525-7.334c0.131-0.127 0.224-0.288 0.269-0.466s0.039-0.363-0.017-0.537z"></path>
</symbol>
<symbol id="icon-ho" viewBox="0 0 25 32">
<path fill="#6160d2" style="fill: var(--color3, #6160d2)" d="M12.92 0.315c-0.201-0.203-0.47-0.318-0.76-0.315-0.285 0.001-0.558 0.116-0.758 0.32-0.443 0.453-10.847 11.186-10.847 20.073 0 6.4 5.207 11.608 11.608 11.608s11.608-5.207 11.608-11.608c0-9.032-10.408-19.631-10.851-20.078zM12.164 29.871c-5.226 0-9.478-4.252-9.478-9.478 0-6.717 7.113-15.148 9.482-17.769 2.373 2.597 9.473 10.943 9.473 17.769-0 5.226-4.252 9.478-9.478 9.478z"></path>
<path fill="#6160d2" style="fill: var(--color3, #6160d2)" d="M8.723 16.976c-0.206 0-0.383 0.076-0.513 0.22-0.126 0.14-0.19 0.339-0.19 0.592v1.185h-1.707v-1.185c0-0.256-0.066-0.457-0.195-0.596-0.132-0.141-0.31-0.216-0.517-0.216-0.211 0-0.39 0.077-0.518 0.222-0.122 0.139-0.184 0.338-0.184 0.59v3.844c0 0.252 0.063 0.451 0.186 0.591 0.129 0.146 0.307 0.224 0.516 0.224 0.204 0 0.382-0.075 0.515-0.217 0.131-0.14 0.197-0.341 0.197-0.598v-1.428h1.707v1.428c0 0.252 0.063 0.451 0.186 0.591 0.129 0.146 0.307 0.224 0.516 0.224 0.204 0 0.382-0.075 0.515-0.217 0.131-0.14 0.197-0.341 0.197-0.598v-3.844c0-0.256-0.066-0.457-0.195-0.596-0.132-0.141-0.31-0.216-0.517-0.216z"></path>
<path fill="#6160d2" style="fill: var(--color3, #6160d2)" d="M13.16 24.266c-0.103-0.080-0.241-0.121-0.412-0.121h-0.761c0.067-0.061 0.154-0.136 0.266-0.227 0.242-0.198 0.411-0.34 0.515-0.433 0.116-0.104 0.229-0.247 0.337-0.424 0.117-0.193 0.176-0.409 0.176-0.643 0-0.151-0.029-0.299-0.085-0.44s-0.136-0.266-0.238-0.373c-0.102-0.108-0.222-0.194-0.359-0.256-0.197-0.088-0.434-0.132-0.704-0.132-0.226 0-0.429 0.035-0.602 0.104-0.175 0.070-0.323 0.164-0.44 0.28s-0.206 0.247-0.265 0.391c-0.059 0.144-0.089 0.286-0.089 0.422 0 0.184 0.076 0.3 0.14 0.363 0.092 0.092 0.212 0.14 0.347 0.14 0.195 0 0.308-0.089 0.369-0.163 0.063-0.077 0.116-0.177 0.162-0.308 0.041-0.117 0.057-0.148 0.057-0.148h-0c0.079-0.121 0.174-0.175 0.309-0.175 0.063 0 0.119 0.013 0.17 0.041 0.049 0.026 0.086 0.061 0.114 0.108s0.041 0.099 0.041 0.161c0 0.062-0.016 0.126-0.048 0.195-0.035 0.076-0.089 0.153-0.159 0.228-0.076 0.081-0.173 0.164-0.286 0.244-0.083 0.056-0.209 0.162-0.387 0.326-0.171 0.158-0.366 0.349-0.578 0.57-0.067 0.071-0.126 0.163-0.178 0.279-0.056 0.123-0.083 0.226-0.083 0.314 0 0.145 0.056 0.277 0.163 0.382 0.107 0.106 0.251 0.16 0.426 0.16h1.74c0.164 0 0.294-0.049 0.387-0.146 0.089-0.093 0.136-0.212 0.136-0.344-0-0.153-0.062-0.282-0.179-0.373z"></path>
<path fill="#6160d2" style="fill: var(--color3, #6160d2)" d="M18.791 18.278c-0.205-0.415-0.511-0.741-0.91-0.966-0.393-0.223-0.867-0.335-1.408-0.335-0.398 0-0.76 0.064-1.077 0.19-0.321 0.128-0.598 0.315-0.823 0.557-0.224 0.241-0.396 0.535-0.513 0.874-0.115 0.334-0.173 0.704-0.173 1.101 0 0.387 0.056 0.753 0.165 1.088 0.112 0.342 0.281 0.64 0.502 0.885 0.223 0.247 0.503 0.441 0.833 0.575 0.326 0.133 0.698 0.2 1.106 0.2 0.409 0 0.78-0.066 1.101-0.195 0.326-0.131 0.606-0.325 0.831-0.574 0.223-0.247 0.392-0.543 0.503-0.878 0.109-0.329 0.164-0.697 0.164-1.095-0-0.541-0.102-1.021-0.302-1.427zM17.497 20.582c-0.108 0.227-0.246 0.389-0.423 0.494-0.18 0.107-0.372 0.16-0.588 0.16-0.167 0-0.321-0.031-0.458-0.092-0.136-0.060-0.258-0.153-0.364-0.276-0.108-0.124-0.193-0.286-0.254-0.482-0.063-0.202-0.095-0.434-0.095-0.689 0-0.252 0.032-0.481 0.095-0.68 0.061-0.193 0.144-0.351 0.245-0.47 0.101-0.118 0.218-0.206 0.357-0.268s0.295-0.093 0.461-0.093c0.239 0 0.443 0.055 0.624 0.169 0.179 0.112 0.314 0.276 0.413 0.499 0.103 0.234 0.155 0.517 0.155 0.843 0 0.352-0.056 0.65-0.167 0.884z"></path>
</symbol>
<symbol id="icon-co" viewBox="0 0 47 32">
<path fill="#6160d2" style="fill: var(--color3, #6160d2); stroke: var(--color3, #6160d2)" stroke="#6160d2" stroke-linejoin="miter" stroke-linecap="butt" stroke-miterlimit="4" stroke-width="0.5818" d="M39.123 14.579c0.244-0.845 0.32-1.719 0.32-2.576 0-5.816-4.732-10.548-10.548-10.548-2.295 0-4.477 0.725-6.309 2.096-1.771 1.325-3.107 3.212-3.761 5.315-0.022 0.070-0.096 0.23-0.398 0.18-0.027-0.004-0.055-0.004-0.083-0.006-0.099-0.006-0.206-0.012-0.317-0.012-3.449 0-6.527 2.231-7.706 5.567-0.018 0.050-0.071 0.167-0.214 0.139-0.014-0.003-0.029-0.006-0.043-0.009-0.523-0.105-1.059-0.158-1.593-0.158-4.477 0-8.12 3.643-8.12 8.12s3.642 8.12 8.12 8.12h28.32c4.478 0 8.12-3.642 8.12-8.12 0-3.511-2.298-6.65-5.62-7.725-0.082-0.026-0.253-0.083-0.167-0.382zM36.79 29.296h-28.32c-3.644 0-6.609-2.965-6.609-6.609s2.965-6.61 6.609-6.61c0.447 0 0.895 0.046 1.332 0.136 0.143 0.029 0.286 0.044 0.426 0.044 0.707 0 1.258-0.387 1.474-1.035 0.933-2.802 3.475-4.684 6.324-4.684 0.092 0 0.192 0.007 0.299 0.014 0.116 0.008 0.235 0.016 0.364 0.017l0.027 0c0.875 0 1.394-0.403 1.54-1.197 0.004-0.023 0.007-0.044 0.011-0.058 1.182-3.797 4.65-6.348 8.629-6.348 4.983 0 9.037 4.054 9.037 9.037 0 0.855-0.125 1.72-0.372 2.572-0.12 0.415-0.093 0.783 0.081 1.096 0.259 0.465 0.724 0.595 0.948 0.657l0.035 0.010c2.811 0.811 4.775 3.422 4.775 6.35-0 3.645-2.965 6.609-6.61 6.609z"></path>
<path fill="#6160d2" style="fill: var(--color3, #6160d2)" d="M19.418 16.526c-0.433-0.14-0.936-0.217-1.415-0.217-2.274 0-3.862 1.571-3.862 3.819 0 2.2 1.444 3.679 3.594 3.679 0.857 0 1.479-0.185 1.774-0.296 0.101-0.038 0.368-0.138 0.33-0.554l-0.103-0.461c-0.046-0.213-0.187-0.34-0.377-0.34-0.083 0-0.158 0.025-0.207 0.044-0.244 0.094-0.634 0.218-1.192 0.218-1.294 0-2.164-0.943-2.164-2.347 0-1.443 0.866-2.375 2.206-2.375 0.423 0 0.796 0.063 1.107 0.188l0.016 0.007c0.049 0.020 0.123 0.051 0.211 0.051 0.103 0 0.289-0.044 0.376-0.34l0.139-0.472 0.005-0.023c0.044-0.254-0.128-0.482-0.439-0.582z"></path>
<path fill="#6160d2" style="fill: var(--color3, #6160d2)" d="M24.345 16.281c-2.108 0-3.58 1.571-3.58 3.82 0 2.182 1.426 3.707 3.468 3.707 1.731 0 3.594-1.195 3.594-3.82 0-2.183-1.432-3.707-3.482-3.707zM24.289 22.476c-1.082 0-1.868-1.017-1.868-2.417 0-1.217 0.586-2.445 1.896-2.445 1.455 0 1.84 1.581 1.84 2.417-0 1.417-0.786 2.445-1.868 2.445z"></path>
<path fill="#6160d2" style="fill: var(--color3, #6160d2)" d="M33.246 22.596h-1.49c-0.264 0-0.134-0.129-0.069-0.192 1.167-1.14 2.032-2.142 2.032-3.376 0-1.063-0.69-2.136-2.233-2.136-0.604 0-1.186 0.17-1.682 0.491-0.309 0.2-0.426 0.494-0.299 0.75l0.125 0.276 0.009 0.018c0.074 0.139 0.21 0.222 0.365 0.222 0.161 0 0.295-0.087 0.386-0.146 0.305-0.199 0.616-0.299 0.923-0.299 0.639 0 0.949 0.304 0.949 0.927-0.008 0.814-0.67 1.574-2.248 3.077-0.074 0.064-0.51 0.441-0.704 0.687-0.1 0.127-0.098 0.289-0.096 0.432l0.001 0.057c0 0.344 0.294 0.523 0.584 0.523h3.442c0.022 0.002 0.054 0.005 0.091 0.005 0.375 0 0.543-0.24 0.543-0.477v-0.302c0-0.349-0.314-0.535-0.628-0.538z"></path>
</symbol>
<symbol id="icon-untitled" viewBox="0 0 32 32">
<path fill="#01005b" style="fill: var(--color4, #01005b)" d="M1.232 14.397v3.261h13.117v13.191h3.261v-13.191h13.191v-3.261h-13.191v-13.043h-3.261v13.043h-13.117z"></path>
</symbol>
<symbol id="icon-untitled1" viewBox="0 0 160 32">
<path fill="#01005b" style="fill: var(--color4, #01005b)" d="M2.908 25.515h154.411v-20.181h-154.411v20.181z"></path>
</symbol>
<symbol id="icon-leaf" viewBox="0 0 32 32">
<path fill="#01005b" style="fill: var(--color4, #01005b)" d="M31.551 27.572c-0.553-0.483-1.395-0.431-1.882 0.118-2.238 2.515-4.725 1.6-5.884 0.941 2.389-15.054-3.014-17.856-10.444-21.709-3.126-1.62-6.667-3.461-10.247-6.59-0.349-0.307-0.829-0.405-1.27-0.274s-0.783 0.483-0.902 0.927c-1.941 7.328-0.796 14.453 3.238 20.057 3.962 5.506 10.234 8.869 17.677 9.503 1.059 0.738 2.698 1.456 4.515 1.456 1.731 0 3.62-0.653 5.318-2.56 0.48-0.549 0.434-1.385-0.118-1.868zM6.332 19.5c-3.192-4.428-4.33-9.96-3.291-15.773 3.205 2.501 6.292 4.102 9.062 5.538 6.779 3.514 10.727 5.564 9.319 16.994l-3.442-4.167 0.724-4.271c0.118-0.718-0.369-1.404-1.099-1.522-0.724-0.118-1.415 0.366-1.534 1.084l-0.336 1.992-4.633-5.61-2.593-3.906c-0.401-0.614-1.231-0.784-1.849-0.379-0.612 0.398-0.783 1.221-0.382 1.829l2.626 3.964c0.026 0.039 0.053 0.078 0.086 0.111l1.343 1.626-0.967 0.013c-0.737 0.013-1.323 0.614-1.316 1.339 0.013 0.725 0.605 1.306 1.336 1.306 0.007 0 0.013 0 0.020 0l3.093-0.046 6.463 7.831c-5.278-1.11-9.688-3.866-12.629-7.955z"></path>
</symbol>
<symbol id="icon-cloud" viewBox="0 0 44 32">
<path fill="#01005b" style="fill: var(--color4, #01005b)" d="M32.51 8.344h-0.221c-1.88-4.985-6.499-8.344-11.721-8.344-6.758 0-12.291 5.606-12.593 12.616-4.502 0.671-7.975 4.74-7.975 9.644 0 5.371 4.167 9.741 9.289 9.741h23.222c6.219 0 11.279-5.306 11.279-11.828s-5.060-11.828-11.279-11.828zM32.51 27.825h-23.222c-2.927 0-5.308-2.497-5.308-5.566s2.381-5.566 5.308-5.566h0.663c1.099 0 1.99-0.935 1.99-2.087v-1.386c0-4.987 3.869-9.045 8.625-9.045 3.936 0 7.371 2.787 8.352 6.778 0.227 0.922 1.020 1.566 1.927 1.566h1.663c4.024 0 7.298 3.433 7.298 7.653s-3.274 7.654-7.298 7.654z"></path>
</symbol>
<symbol id="icon-line" viewBox="0 0 34 32">
<path fill="#01005b" style="fill: var(--color4, #01005b)" d="M3.147 8.124c3.345-3.243 5.987-5.807 13.156-1.232 3.444 2.197 6.222 3.027 8.533 3.023 4.049 0 6.674-2.543 8.943-4.742 0.389-0.383 0.632-0.921 0.675-1.502s-0.115-1.158-0.442-1.609c-0.16-0.221-0.357-0.404-0.58-0.538s-0.468-0.216-0.719-0.241-0.505 0.007-0.746 0.094c-0.241 0.087-0.463 0.228-0.655 0.415-3.343 3.248-5.986 5.812-13.156 1.232-9.473-6.039-13.911-1.736-17.475 1.723-0.389 0.383-0.631 0.922-0.674 1.503s0.115 1.158 0.443 1.609c0.16 0.221 0.357 0.404 0.58 0.537s0.468 0.215 0.719 0.24c0.252 0.025 0.505-0.008 0.745-0.095s0.462-0.229 0.653-0.415zM31.313 12.833c-3.343 3.243-5.986 5.812-13.156 1.232-9.473-6.043-13.911-1.738-17.475 1.719-0.389 0.383-0.631 0.922-0.674 1.503s0.115 1.158 0.443 1.609c0.159 0.221 0.356 0.404 0.579 0.538s0.467 0.216 0.719 0.241c0.252 0.025 0.505-0.007 0.745-0.094s0.463-0.228 0.654-0.415c3.345-3.245 5.987-5.81 13.156-1.237 3.444 2.201 6.222 3.027 8.533 3.027 4.049 0 6.674-2.543 8.943-4.746 0.39-0.382 0.632-0.92 0.676-1.501s-0.115-1.158-0.442-1.608c-0.16-0.222-0.357-0.405-0.58-0.538s-0.468-0.216-0.719-0.241c-0.252-0.025-0.505 0.007-0.746 0.095s-0.463 0.229-0.654 0.416zM31.313 23.873c-3.343 3.247-5.986 5.812-13.156 1.237-9.473-6.043-13.911-1.741-17.475 1.719-0.389 0.383-0.631 0.922-0.674 1.503s0.115 1.158 0.443 1.609c0.159 0.221 0.356 0.404 0.58 0.538s0.468 0.215 0.719 0.24 0.505-0.008 0.745-0.096c0.24-0.088 0.462-0.229 0.653-0.416 3.345-3.243 5.987-5.805 13.156-1.233 3.444 2.197 6.222 3.027 8.533 3.027 4.049 0 6.674-2.547 8.943-4.746 0.389-0.383 0.632-0.921 0.675-1.502s-0.115-1.158-0.442-1.609c-0.16-0.221-0.357-0.404-0.58-0.538s-0.468-0.216-0.719-0.241-0.505 0.007-0.746 0.094c-0.241 0.087-0.463 0.228-0.655 0.414z"></path>
</symbol>
<symbol id="icon-basket" viewBox="0 0 40 32">
<path fill="#01005b" style="fill: var(--color4, #01005b); stroke: var(--color4, #01005b)" stroke="#01005b" stroke-linejoin="miter" stroke-linecap="butt" stroke-miterlimit="4" stroke-width="0.5647" d="M11.948 6.099c0-0.435 0.363-0.788 0.811-0.788h18.968c0.236 0 0.461 0.1 0.615 0.274s0.222 0.405 0.187 0.632l-0.81 5.163c-0.061 0.39-0.407 0.669-0.801 0.669-0.041 0-0.082-0.003-0.123-0.009-0.443-0.066-0.747-0.468-0.68-0.898l0.668-4.256h-18.024c-0.448 0-0.811-0.353-0.811-0.788zM18.107 19.535h-7.19l-2.998-16.997c-0.067-0.378-0.404-0.655-0.8-0.655h-4.426c-0.448 0-0.811 0.353-0.811 0.788s0.363 0.788 0.811 0.788h3.742l2.998 16.998c0.068 0.384 0.411 0.655 0.799 0.655 0.045-0 0.092-0.004 0.138-0.011 0.003-0.001 0.006-0.001 0.010-0.002 0.048 0.009 0.097 0.013 0.147 0.013h7.581c0.448 0 0.811-0.353 0.811-0.788s-0.363-0.788-0.811-0.788zM16.539 25.112v1.399c0 1.314-1.101 2.384-2.454 2.384s-2.454-1.070-2.454-2.384v-1.399c0-1.315 1.101-2.384 2.454-2.384s2.454 1.069 2.454 2.384zM14.917 25.112c0-0.445-0.373-0.808-0.832-0.808h-0c-0.458 0-0.831 0.362-0.831 0.808v1.399c0 0.445 0.373 0.808 0.831 0.808s0.832-0.362 0.832-0.808v-1.399zM37.535 17.761c-0.479 3.736-2.427 7.068-5.485 9.381-2.574 1.947-5.675 2.976-8.886 2.976-0.604 0-1.213-0.037-1.822-0.11-0.51-0.062-1.024-0.151-1.528-0.266-0.338-0.077-0.589-0.354-0.623-0.69-0.105-1.040-0.091-2.095 0.042-3.136 0.989-7.713 8.253-13.207 16.193-12.246 0.51 0.062 1.024 0.151 1.528 0.266 0.338 0.077 0.589 0.354 0.623 0.69 0.106 1.039 0.091 2.095-0.042 3.136zM36.007 15.352c-0.26-0.047-0.521-0.087-0.781-0.118-7.051-0.853-13.504 4.027-14.382 10.877-0.050 0.391-0.081 0.784-0.094 1.177l7.423-6.317c0.337-0.287 0.849-0.254 1.145 0.073s0.261 0.825-0.076 1.112l-7.424 6.318c3.322 0.333 6.591-0.577 9.234-2.576 2.716-2.054 4.447-5.013 4.872-8.332 0.094-0.735 0.122-1.478 0.082-2.215z"></path>
</symbol>
<symbol id="icon-sun" viewBox="0 0 32 32">
<path fill="none" stroke="#15005b" style="stroke: var(--color5, #15005b)" stroke-linejoin="round" stroke-linecap="round" stroke-miterlimit="10" stroke-width="1.5304" d="M16 2.087v28.522"></path>
<path fill="none" stroke="#15005b" style="stroke: var(--color5, #15005b)" stroke-linejoin="round" stroke-linecap="round" stroke-miterlimit="10" stroke-width="1.5304" d="M16 24.027c-4.245 0-7.679-3.434-7.679-7.679s3.434-7.679 7.679-7.679"></path>
<path fill="none" stroke="#15005b" style="stroke: var(--color5, #15005b)" stroke-linejoin="round" stroke-linecap="round" stroke-miterlimit="10" stroke-width="1.5304" d="M5.918 6.267l2.326 2.326"></path>
<path fill="none" stroke="#15005b" style="stroke: var(--color5, #15005b)" stroke-linejoin="round" stroke-linecap="round" stroke-miterlimit="10" stroke-width="1.5304" d="M1.739 16.348h3.291"></path>
<path fill="none" stroke="#15005b" style="stroke: var(--color5, #15005b)" stroke-linejoin="round" stroke-linecap="round" stroke-miterlimit="10" stroke-width="1.5304" d="M5.918 26.43l2.326-2.326"></path>
<path fill="none" stroke="#15005b" style="stroke: var(--color5, #15005b)" stroke-linejoin="round" stroke-linecap="round" stroke-miterlimit="10" stroke-width="1.5304" d="M16 12.563c1.316-2.326 3.817-3.894 6.681-3.894 0.176 0 0.34 0.011 0.516 0.022-1.832 0.965-3.072 2.885-3.072 5.090 0 3.181 2.578 5.759 5.759 5.759 1.755 0 3.324-0.79 4.377-2.029-0.57 3.697-3.741 6.516-7.58 6.516-2.863 0-5.364-1.569-6.681-3.894"></path>
</symbol>
<symbol id="icon-logo" viewBox="0 0 178 32">
<path d="M0 31.4v-31.4h13.412c2.408 0 4.424 0.332 6.047 0.997 1.633 0.664 2.858 1.595 3.675 2.79 0.827 1.196 1.241 2.581 1.241 4.155 0 1.196-0.257 2.264-0.77 3.204-0.513 0.93-1.22 1.702-2.12 2.315s-1.942 1.043-3.125 1.288v0.307c1.298 0.061 2.497 0.404 3.597 1.027 1.11 0.624 2 1.492 2.67 2.607 0.67 1.104 1.005 2.412 1.005 3.925 0 1.686-0.44 3.194-1.319 4.523-0.879 1.319-2.152 2.361-3.816 3.128-1.665 0.756-3.686 1.135-6.062 1.135h-14.433zM7.774 25.282h4.806c1.686 0 2.926-0.312 3.722-0.935 0.806-0.624 1.209-1.492 1.209-2.607 0-0.807-0.194-1.503-0.581-2.085-0.387-0.593-0.937-1.048-1.649-1.365-0.712-0.327-1.565-0.491-2.56-0.491h-4.947v7.482zM7.774 12.91h4.303c0.848 0 1.602-0.138 2.262-0.414s1.173-0.675 1.539-1.196c0.377-0.521 0.565-1.15 0.565-1.886 0-1.053-0.382-1.881-1.147-2.484s-1.796-0.905-3.094-0.905h-4.429v6.884z"></path>
<path d="M27.767 0h8.685l6.8 13.14h0.283l6.8-13.14h8.685l-11.763 20.913v10.487h-7.727v-10.487l-11.763-20.913z"></path>
<path d="M63.258 6.163v-6.163h27.186v6.163h-9.753v25.237h-7.664v-25.237h-9.769z"></path>
<path d="M94.241 31.4v-31.4h22.427v6.163h-14.652v6.439h13.507v6.179h-13.507v6.455h14.652v6.163h-22.427z"></path>
<path d="M121.537 31.4v-31.4h22.427v6.163h-14.652v6.439h13.507v6.179h-13.507v6.455h14.652v6.163h-22.427z"></path>
<path d="M156.701 0l5.874 9.92h0.251l0.252-0.42-6.376-9.5z"></path>
<path d="M162.575 9.92l-5.874-9.92h-8.764l9.722 15.7-9.973 15.7h8.858l6.031-10.027h0.251l6.031 10.027h8.921l-14.7-21.9-0.252 0.42h-0.251z"></path>
<path d="M169.934 0h7.844v7.85h-7.844v-7.85z"></path>
</symbol>
</defs>
</svg>
